<?xml version="1.0" encoding="utf-8"?>
<!-- Generator: Adobe Illustrator 18.1.0, SVG Export Plug-In . SVG Version: 6.00 Build 0)  -->
<!DOCTYPE svg PUBLIC "-//W3C//DTD SVG 1.1//EN" "http://www.w3.org/Graphics/SVG/1.1/DTD/svg11.dtd">
<svg version="1.1" id="Layer_1" xmlns="http://www.w3.org/2000/svg" xmlns:xlink="http://www.w3.org/1999/xlink" x="0px" y="0px"
	 viewBox="0 0 288 288" enable-background="new 0 0 288 288" xml:space="preserve">
<path d="M195.7,97.2c-10.7-11-25.2-18.4-41.7-20c-35.7-3.5-68.3,22.1-73.3,57.6c-5.3,37.4,21,71.7,58.4,76.4
	c14.8,1.9,29.2-1.2,41.3-8c0.5-0.3,1.1-0.1,1.3,0.4l11.3,22.7c0.2,0.5,0.1,1-0.4,1.3c-21.9,11.9-48.7,15.4-75.6,6.8
	c-36.8-11.8-62.7-45.3-64.9-83.9C48.5,89,100.9,42.3,159,49.6c23.5,3,42.5,12.8,57.2,29.1l6-6c0.6-0.6,1.6-0.2,1.6,0.6l2.5,35
	c0,0.6-0.4,1.1-1,1l-36.3-3.2c-0.8-0.1-1.1-1-0.6-1.6L195.7,97.2z"/>
<path d="M119,102.1v78.3c0,1.9,1.6,3.5,3.5,3.5h50.8c1.9,0,3.5-1.6,3.5-3.5v-11.8c0-1.9-1.6-3.5-3.5-3.5h-30.8
	c-1.9,0-3.5-1.6-3.5-3.5v-59.5c0-1.9-1.6-3.5-3.5-3.5h-13C120.6,98.6,119,100.2,119,102.1z"/>
</svg>
