<?xml version="1.0" encoding="utf-8"?>
<!-- Generator: Adobe Illustrator 18.1.0, SVG Export Plug-In . SVG Version: 6.00 Build 0)  -->
<!DOCTYPE svg PUBLIC "-//W3C//DTD SVG 1.1//EN" "http://www.w3.org/Graphics/SVG/1.1/DTD/svg11.dtd">
<svg version="1.1" id="Layer_1" xmlns="http://www.w3.org/2000/svg" xmlns:xlink="http://www.w3.org/1999/xlink" x="0px" y="0px"
	 viewBox="0 0 504 504" enable-background="new 0 0 504 504" xml:space="preserve">
<g>
	<path fill="#FFFFFF" d="M250.8,476.7c-60.8,0-118-23.7-161-66.7c-43-43-66.7-100.2-66.7-161c0-60.8,23.7-118,66.7-161
		s100.2-66.7,161-66.7c60.8,0,118,23.7,161,66.7c43,43,66.7,100.2,66.7,161c0,60.8-23.7,118-66.7,161
		C368.8,453,311.6,476.7,250.8,476.7z"/>
	<path d="M250.8,26.3c123,0,222.7,99.7,222.7,222.7s-99.7,222.7-222.7,222.7S28.1,372,28.1,249S127.8,26.3,250.8,26.3 M250.8,16.3
		c-31.4,0-61.9,6.2-90.6,18.3c-27.7,11.7-52.6,28.5-74,49.9s-38.1,46.3-49.9,74c-12.1,28.7-18.3,59.2-18.3,90.6s6.2,61.9,18.3,90.6
		c11.7,27.7,28.5,52.6,49.9,74c21.4,21.4,46.3,38.1,74,49.9c28.7,12.1,59.2,18.3,90.6,18.3s61.9-6.2,90.6-18.3
		c27.7-11.7,52.6-28.5,74-49.9c21.4-21.4,38.1-46.3,49.9-74c12.1-28.7,18.3-59.2,18.3-90.6s-6.2-61.9-18.3-90.6
		c-11.7-27.7-28.5-52.6-49.9-74c-21.4-21.4-46.3-38.1-74-49.9C312.7,22.5,282.2,16.3,250.8,16.3L250.8,16.3z"/>
</g>
<path stroke="#000000" stroke-width="15" stroke-miterlimit="10" d="M121,73.6l-8.5,7.7l175.1,244c0,0,13.3,28.7,29.6,27.4
	c0,0,61-4,69.4-24.7c8.5-20.7-8.3-22.7-8.3-22.7l-46.1,15.4c0,0-22.3,8.7-34.4-6.7L121,73.6z"/>
<path stroke="#000000" stroke-width="15" stroke-miterlimit="10" d="M380.6,73.6l8.5,7.7l-175.1,244c0,0-13.3,28.7-29.6,27.4
	c0,0-61-4-69.4-24.7s8.3-22.7,8.3-22.7l46.1,15.4c0,0,22.3,8.7,34.4-6.7L380.6,73.6z"/>
<path stroke="#000000" stroke-width="15" stroke-miterlimit="10" d="M272,347.2v-9.9c0,0-1.7-8.3-20.7-8.2
	c-18.2,0.1-20.7,9.1-20.7,9.1v9.1c0,0,2.1,7.3,20.7,7.4C270.8,354.6,272,347.2,272,347.2z"/>
<text transform="matrix(1 0 0 1 170.6909 127.5903)" font-family="'AbadiMT-CondensedExtraBold'" font-size="104.4683">PRO</text>
<text transform="matrix(1 0 0 1 125.6911 432.1114)" font-family="'AbadiMT-CondensedExtraBold'" font-size="86">LEAGUE</text>
<polygon fill="#FFFFFF" points="165.6,358.6 157.7,356.9 167.3,311.8 175.2,313.5 "/>
<polygon fill="#FFFFFF" points="149.6,355.3 141.7,353.6 152.3,305.5 160.2,308.3 "/>
<polygon fill="#FFFFFF" points="134.6,351.3 127.7,348.6 137.3,300.5 145.2,303.3 "/>
<polygon fill="#FFFFFF" points="333.9,359.6 341.8,357.9 332.2,312.8 324.3,314.5 "/>
<polygon fill="#FFFFFF" points="349.9,356.3 357.8,354.6 347.2,306.5 339.3,309.3 "/>
<polygon fill="#FFFFFF" points="364.9,352.3 371.8,349.6 362.2,301.5 354.3,304.3 "/>
</svg>
