<?xml version="1.0" encoding="utf-8"?>
<!-- Generator: Adobe Illustrator 18.1.0, SVG Export Plug-In . SVG Version: 6.00 Build 0)  -->
<!DOCTYPE svg PUBLIC "-//W3C//DTD SVG 1.1//EN" "http://www.w3.org/Graphics/SVG/1.1/DTD/svg11.dtd">
<svg version="1.1" id="Layer_1" xmlns="http://www.w3.org/2000/svg" xmlns:xlink="http://www.w3.org/1999/xlink" x="0px" y="0px"
	 viewBox="0 0 288 288" enable-background="new 0 0 288 288" xml:space="preserve">
<g>
	<path fill="#FFFFFF" d="M28.9,235c-2.8,0-5-2.2-5-5V81.3c0-2.8,2.2-5,5-5h236.2c2.8,0,5,2.2,5,5V230c0,2.8-2.2,5-5,5H28.9z"/>
	<path d="M265.1,78.3c1.7,0,3,1.3,3,3V230c0,1.7-1.3,3-3,3H28.9c-1.7,0-3-1.3-3-3V81.3c0-1.7,1.3-3,3-3H265.1 M265.1,74.3H28.9
		c-3.9,0-7,3.1-7,7V230c0,3.9,3.1,7,7,7h236.2c3.9,0,7-3.1,7-7V81.3C272.1,77.4,269,74.3,265.1,74.3L265.1,74.3z"/>
</g>
<g>
	<path fill="#FFFFFF" d="M147,177.7c-1.1,0-2.2-0.3-3.2-0.8L27.9,119.1c-2.5-1.2-4-3.7-4-6.5V83.5c0-4,3.2-7.2,7.2-7.2h231.7
		c4,0,7.2,3.2,7.2,7.2v29.1c0,2.8-1.5,5.2-4,6.5L150.3,177C149.3,177.5,148.1,177.7,147,177.7z"/>
	<path d="M262.9,78.3c2.9,0,5.2,2.4,5.2,5.2v29.1c0,2-1.1,3.8-2.9,4.7l-115.9,57.9c-0.7,0.4-1.5,0.6-2.3,0.6c-0.8,0-1.6-0.2-2.3-0.6
		L28.8,117.3c-1.8-0.9-2.9-2.7-2.9-4.7V83.5c0-2.9,2.4-5.2,5.2-5.2H262.9 M262.9,74.3H31.2c-5.1,0-9.2,4.1-9.2,9.2v29.1
		c0,3.5,2,6.7,5.1,8.3l115.9,57.8c1.3,0.6,2.7,1,4.1,1c1.4,0,2.8-0.3,4.1-1L267,120.9c3.1-1.6,5.1-4.8,5.1-8.3V83.5
		C272.1,78.4,268,74.3,262.9,74.3L262.9,74.3z"/>
</g>
</svg>
